# xmcd
#
# Track frame offsets: 
#        150
#        15692
#        35473
#        51744
#        68285
#        83638
#        99099
#        114425
#        127402
#        140352
#        154058
#        174784
#        189543
#        211943
#        224326
#        237924
#        251387
#        264715
#        281040
#        291803
#        304294
#
# Disc length: 4307 seconds
#
# Revision: 2
# Processed by: cddbd v1.4PL0 Copyright (c) Steve Scherf et al.
# Submitted via: ExactAudioCopy v0.95a3
#
DISCID=2f10d115
DTITLE=Various Artist - Boot Scootin' Country Disc 8
DYEAR=1995
DGENRE=Country
TTITLE0=David Lee Murphy - Every Time I Get Around You
TTITLE1=John Michael Montgomery - I Swear
TTITLE2=Kenny Rogers - Lucille
TTITLE3=Ty Herndon - Loved Too Much
TTITLE4=Rhett Akins - I Brake For Brunettes
TTITLE5=Deana Carter - Count Me In
TTITLE6=John Conlee - Rose Colored Glasses
TTITLE7=Lee Roy Parnell Feat, Brooks and Dunn - Take These Chains From M
TTITLE7=y Heart
TTITLE8=Chris LeDoux - Cadillac Ranch
TTITLE9=Frazier River - Tangled Up In Texas [ Radio Edit]
TTITLE10=Clarence Carter - Strokin'
TTITLE11=Pam Tillis - All The Good Ones Are Gone
TTITLE12=Mavericks - Children
TTITLE13=Freddy Fender - Wasted Days And Wasted Nights
TTITLE14=John Andersion - Money In The Bank
TTITLE15=David Houston - Almost Persuaded
TTITLE16=Marty Stuart - If I Ain't Got You
TTITLE17=Rodney Crowell - The Rose Of Memphis
TTITLE18=Sammy Kershaw - Your Tattoo
TTITLE19=Clay Walker - What's It To You
TTITLE20=Joe Ely - Highways And Heartaches
EXTD=
EXTT0=
EXTT1=
EXTT2=
EXTT3=
EXTT4=
EXTT5=
EXTT6=
EXTT7=
EXTT8=
EXTT9=
EXTT10=
EXTT11=
EXTT12=
EXTT13=
EXTT14=
EXTT15=
EXTT16=
EXTT17=
EXTT18=
EXTT19=
EXTT20=
PLAYORDER=
